<svg id="visual" viewBox="0 0 900 450" width="900" height="450" xmlns="http://www.w3.org/2000/svg" xmlns:xlink="http://www.w3.org/1999/xlink" version="1.1"><rect x="0" y="0" width="900" height="450" fill="#E2E8F0"></rect><path d="M0 334L21.5 329.5C43 325 86 316 128.8 316C171.7 316 214.3 325 257.2 321.3C300 317.7 343 301.3 385.8 290.5C428.7 279.7 471.3 274.3 514.2 275.2C557 276 600 283 642.8 285.2C685.7 287.3 728.3 284.7 771.2 287.2C814 289.7 857 297.3 878.5 301.2L900 305L900 451L878.5 451C857 451 814 451 771.2 451C728.3 451 685.7 451 642.8 451C600 451 557 451 514.2 451C471.3 451 428.7 451 385.8 451C343 451 300 451 257.2 451C214.3 451 171.7 451 128.8 451C86 451 43 451 21.5 451L0 451Z" fill="#cb6ce6"></path><path d="M0 321L21.5 322.2C43 323.3 86 325.7 128.8 322.3C171.7 319 214.3 310 257.2 311.5C300 313 343 325 385.8 328.3C428.7 331.7 471.3 326.3 514.2 321.8C557 317.3 600 313.7 642.8 313.7C685.7 313.7 728.3 317.3 771.2 318.7C814 320 857 319 878.5 318.5L900 318L900 451L878.5 451C857 451 814 451 771.2 451C728.3 451 685.7 451 642.8 451C600 451 557 451 514.2 451C471.3 451 428.7 451 385.8 451C343 451 300 451 257.2 451C214.3 451 171.7 451 128.8 451C86 451 43 451 21.5 451L0 451Z" fill="#ba59e9"></path><path d="M0 367L21.5 365.3C43 363.7 86 360.3 128.8 356.7C171.7 353 214.3 349 257.2 347C300 345 343 345 385.8 349.3C428.7 353.7 471.3 362.3 514.2 364.5C557 366.7 600 362.3 642.8 357.5C685.7 352.7 728.3 347.3 771.2 343.2C814 339 857 336 878.5 334.5L900 333L900 451L878.5 451C857 451 814 451 771.2 451C728.3 451 685.7 451 642.8 451C600 451 557 451 514.2 451C471.3 451 428.7 451 385.8 451C343 451 300 451 257.2 451C214.3 451 171.7 451 128.8 451C86 451 43 451 21.5 451L0 451Z" fill="#a547ed"></path><path d="M0 398L21.5 393.8C43 389.7 86 381.3 128.8 376.8C171.7 372.3 214.3 371.7 257.2 376.7C300 381.7 343 392.3 385.8 396.5C428.7 400.7 471.3 398.3 514.2 393.3C557 388.3 600 380.7 642.8 375.8C685.7 371 728.3 369 771.2 368.5C814 368 857 369 878.5 369.5L900 370L900 451L878.5 451C857 451 814 451 771.2 451C728.3 451 685.7 451 642.8 451C600 451 557 451 514.2 451C471.3 451 428.7 451 385.8 451C343 451 300 451 257.2 451C214.3 451 171.7 451 128.8 451C86 451 43 451 21.5 451L0 451Z" fill="#8b36f2"></path><path d="M0 423L21.5 423.7C43 424.3 86 425.7 128.8 424.8C171.7 424 214.3 421 257.2 416.8C300 412.7 343 407.3 385.8 405.8C428.7 404.3 471.3 406.7 514.2 408.5C557 410.3 600 411.7 642.8 410.7C685.7 409.7 728.3 406.3 771.2 408.2C814 410 857 417 878.5 420.5L900 424L900 451L878.5 451C857 451 814 451 771.2 451C728.3 451 685.7 451 642.8 451C600 451 557 451 514.2 451C471.3 451 428.7 451 385.8 451C343 451 300 451 257.2 451C214.3 451 171.7 451 128.8 451C86 451 43 451 21.5 451L0 451Z" fill="#6726f7"></path></svg>