<svg id="visual" viewBox="0 0 900 450" width="900" height="450" xmlns="http://www.w3.org/2000/svg" xmlns:xlink="http://www.w3.org/1999/xlink" version="1.1"><rect x="0" y="0" width="900" height="450" fill="#E2E8F0"></rect><defs><linearGradient id="grad1_0" x1="50%" y1="0%" x2="100%" y2="100%"><stop offset="10%" stop-color="#e2e8f0" stop-opacity="1"></stop><stop offset="90%" stop-color="#e2e8f0" stop-opacity="1"></stop></linearGradient></defs><defs><linearGradient id="grad2_0" x1="0%" y1="0%" x2="50%" y2="100%"><stop offset="10%" stop-color="#e2e8f0" stop-opacity="1"></stop><stop offset="90%" stop-color="#e2e8f0" stop-opacity="1"></stop></linearGradient></defs><g transform="translate(900, 0)"><path d="M0 405C-51.1 390 -102.2 374.9 -145.8 352C-189.4 329.1 -225.7 298.2 -265.9 265.9C-306.1 233.5 -350.3 199.6 -374.2 155C-398 110.4 -401.5 55.2 -405 0L0 0Z" fill="#6726F7"></path></g><g transform="translate(0, 450)"><path d="M0 -405C38.1 -366.5 76.2 -327.9 130.5 -315C184.8 -302.1 255.3 -314.9 286.4 -286.4C317.5 -257.9 309.2 -188.2 322.4 -133.6C335.6 -79 370.3 -39.5 405 0L0 0Z" fill="#6726F7"></path></g></svg>