<svg id="visual" viewBox="0 0 900 450" width="900" height="450" xmlns="http://www.w3.org/2000/svg" xmlns:xlink="http://www.w3.org/1999/xlink" version="1.1"><rect x="0" y="0" width="900" height="450" fill="#E2E8F0"></rect><path d="M431 450L456.3 431.3C481.7 412.7 532.3 375.3 561 337.8C589.7 300.3 596.3 262.7 552.7 225.2C509 187.7 415 150.3 378.2 112.8C341.3 75.3 361.7 37.7 371.8 18.8L382 0L900 0L900 18.8C900 37.7 900 75.3 900 112.8C900 150.3 900 187.7 900 225.2C900 262.7 900 300.3 900 337.8C900 375.3 900 412.7 900 431.3L900 450Z" fill="#7631F4" stroke-linecap="round" stroke-linejoin="miter"></path></svg>